# MagicaVoxel @ Ephtracy

# group
o 

# material
mtllib ground.mtl
usemtl palette

# normals
vn -1 0 0
vn 1 0 0
vn 0 0 1
vn 0 0 -1
vn 0 -1 0
vn 0 1 0

# texcoords
vt 0.798828 0.5
vt 0.802734 0.5
vt 0.806641 0.5

# verts
v -0.5 0 0.5
v -0.5 0 -0.5
v -0.5 0.9 -0.2
v -0.5 0.9 -0.3
v -0.5 1 0.5
v -0.5 1 -0.2
v -0.5 1 -0.3
v -0.5 1 -0.5
v 0.5 0 0.5
v 0.5 0 -0.5
v 0.5 0.9 0.2
v 0.5 0.9 0.1
v 0.5 0.9 0
v 0.5 0.9 -0.1
v 0.5 1 0.5
v 0.5 1 0.2
v 0.5 1 0.1
v 0.5 1 0
v 0.5 1 -0.1
v 0.5 1 -0.5
v -0.5 0 0.5
v -0.5 1 0.5
v -0.2 0.9 0.5
v -0.2 1 0.5
v -0.1 0.9 0.5
v -0.1 1 0.5
v 0.3 0.9 0.5
v 0.3 1 0.5
v 0.4 0.9 0.5
v 0.4 1 0.5
v 0.5 0 0.5
v 0.5 1 0.5
v -0.5 0 -0.5
v -0.5 1 -0.5
v -0.4 0.9 -0.5
v -0.4 1 -0.5
v -0.3 0.9 -0.5
v -0.3 1 -0.5
v -0.1 0.9 -0.5
v -0.1 1 -0.5
v 0.1 0.9 -0.5
v 0.1 1 -0.5
v 0.3 0.9 -0.5
v 0.3 1 -0.5
v 0.4 0.9 -0.5
v 0.4 1 -0.5
v 0.5 0 -0.5
v 0.5 1 -0.5
v -0.5 0 0.5
v 0.5 0 0.5
v -0.5 0 -0.5
v 0.5 0 -0.5
v -0.5 1 0.5
v -0.2 1 0.5
v -0.1 1 0.5
v 0.3 1 0.5
v 0.4 1 0.5
v 0.5 1 0.5
v -0.4 1 0.4
v -0.3 1 0.4
v -0.2 1 0.4
v -0.1 1 0.4
v 0.1 1 0.4
v 0.2 1 0.4
v 0.3 1 0.4
v 0.4 1 0.4
v -0.4 1 0.3
v -0.3 1 0.3
v -0.2 1 0.3
v -0.1 1 0.3
v 0 1 0.3
v 0.1 1 0.3
v 0.2 1 0.3
v 0.3 1 0.3
v 0.4 1 0.3
v -0.4 1 0.2
v -0.3 1 0.2
v -0.2 1 0.2
v -0.1 1 0.2
v 0 1 0.2
v 0.1 1 0.2
v 0.2 1 0.2
v 0.3 1 0.2
v 0.4 1 0.2
v 0.5 1 0.2
v -0.4 1 0.1
v -0.3 1 0.1
v -0.2 1 0.1
v -0.1 1 0.1
v 0 1 0.1
v 0.1 1 0.1
v 0.2 1 0.1
v 0.4 1 0.1
v 0.5 1 0.1
v -0.4 1 0
v -0.3 1 0
v -0.2 1 0
v -0.1 1 0
v 0 1 0
v 0.1 1 0
v 0.3 1 0
v 0.4 1 0
v 0.5 1 0
v -0.3 1 -0.1
v -0.2 1 -0.1
v -0.1 1 -0.1
v 0 1 -0.1
v 0.1 1 -0.1
v 0.2 1 -0.1
v 0.3 1 -0.1
v 0.4 1 -0.1
v 0.5 1 -0.1
v -0.5 1 -0.2
v -0.4 1 -0.2
v -0.3 1 -0.2
v -0.2 1 -0.2
v -0.1 1 -0.2
v 0 1 -0.2
v 0.1 1 -0.2
v 0.2 1 -0.2
v 0.3 1 -0.2
v -0.5 1 -0.3
v -0.4 1 -0.3
v -0.2 1 -0.3
v -0.1 1 -0.3
v 0 1 -0.3
v 0.1 1 -0.3
v 0.2 1 -0.3
v -0.3 1 -0.4
v -0.2 1 -0.4
v -0.1 1 -0.4
v 0.1 1 -0.4
v 0.2 1 -0.4
v 0.3 1 -0.4
v 0.4 1 -0.4
v -0.5 1 -0.5
v -0.4 1 -0.5
v -0.3 1 -0.5
v -0.1 1 -0.5
v 0.1 1 -0.5
v 0.3 1 -0.5
v 0.4 1 -0.5
v 0.5 1 -0.5

# faces
f 3/3/1 2/3/1 1/3/1
f 4/3/1 2/3/1 3/3/1
f 5/3/1 3/3/1 1/3/1
f 6/1/1 4/1/1 3/1/1
f 6/3/1 3/3/1 5/3/1
f 7/3/1 2/3/1 4/3/1
f 7/1/1 4/1/1 6/1/1
f 8/3/1 2/3/1 7/3/1
f 9/3/2 10/3/2 11/3/2
f 11/3/2 10/3/2 12/3/2
f 12/3/2 10/3/2 13/3/2
f 13/3/2 10/3/2 14/3/2
f 9/3/2 11/3/2 15/3/2
f 11/2/2 12/2/2 16/2/2
f 15/3/2 11/3/2 16/3/2
f 12/3/2 13/3/2 17/3/2
f 16/2/2 12/2/2 17/2/2
f 13/1/2 14/1/2 18/1/2
f 17/3/2 13/3/2 18/3/2
f 14/3/2 10/3/2 19/3/2
f 18/1/2 14/1/2 19/1/2
f 19/3/2 10/3/2 20/3/2
f 23/3/3 22/3/3 21/3/3
f 24/3/3 22/3/3 23/3/3
f 25/3/3 23/3/3 21/3/3
f 25/2/3 24/2/3 23/2/3
f 26/2/3 24/2/3 25/2/3
f 27/3/3 25/3/3 21/3/3
f 27/3/3 26/3/3 25/3/3
f 28/3/3 26/3/3 27/3/3
f 29/3/3 27/3/3 21/3/3
f 29/2/3 28/2/3 27/2/3
f 30/2/3 28/2/3 29/2/3
f 31/3/3 29/3/3 21/3/3
f 31/3/3 30/3/3 29/3/3
f 32/3/3 30/3/3 31/3/3
f 33/3/4 34/3/4 35/3/4
f 35/3/4 34/3/4 36/3/4
f 33/3/4 35/3/4 37/3/4
f 35/2/4 36/2/4 37/2/4
f 37/2/4 36/2/4 38/2/4
f 33/3/4 37/3/4 39/3/4
f 37/3/4 38/3/4 39/3/4
f 39/3/4 38/3/4 40/3/4
f 33/3/4 39/3/4 41/3/4
f 39/2/4 40/2/4 41/2/4
f 41/2/4 40/2/4 42/2/4
f 33/3/4 41/3/4 43/3/4
f 41/3/4 42/3/4 43/3/4
f 43/3/4 42/3/4 44/3/4
f 33/3/4 43/3/4 45/3/4
f 43/1/4 44/1/4 45/1/4
f 45/1/4 44/1/4 46/1/4
f 33/3/4 45/3/4 47/3/4
f 45/3/4 46/3/4 47/3/4
f 47/3/4 46/3/4 48/3/4
f 51/3/5 50/3/5 49/3/5
f 52/3/5 50/3/5 51/3/5
f 53/3/6 54/3/6 59/3/6
f 59/3/6 54/3/6 60/3/6
f 54/2/6 55/2/6 61/2/6
f 60/3/6 54/3/6 61/3/6
f 55/3/6 56/3/6 62/3/6
f 61/2/6 55/2/6 62/2/6
f 62/3/6 56/3/6 63/3/6
f 63/3/6 56/3/6 64/3/6
f 56/2/6 57/2/6 65/2/6
f 64/3/6 56/3/6 65/3/6
f 57/3/6 58/3/6 66/3/6
f 65/2/6 57/2/6 66/2/6
f 59/1/6 60/1/6 67/1/6
f 53/3/6 59/3/6 67/3/6
f 60/3/6 61/3/6 68/3/6
f 67/1/6 60/1/6 68/1/6
f 61/1/6 62/1/6 69/1/6
f 68/3/6 61/3/6 69/3/6
f 62/3/6 63/3/6 70/3/6
f 69/1/6 62/1/6 70/1/6
f 70/3/6 63/3/6 71/3/6
f 63/1/6 64/1/6 72/1/6
f 71/3/6 63/3/6 72/3/6
f 64/3/6 65/3/6 73/3/6
f 72/1/6 64/1/6 73/1/6
f 65/3/6 66/3/6 73/3/6
f 73/3/6 66/3/6 74/3/6
f 66/3/6 58/3/6 75/3/6
f 74/3/6 66/3/6 75/3/6
f 53/3/6 67/3/6 76/3/6
f 67/3/6 68/3/6 76/3/6
f 68/3/6 69/3/6 76/3/6
f 76/3/6 69/3/6 77/3/6
f 70/2/6 71/2/6 78/2/6
f 77/3/6 69/3/6 78/3/6
f 69/2/6 70/2/6 78/2/6
f 78/2/6 71/2/6 79/2/6
f 71/3/6 72/3/6 80/3/6
f 79/2/6 71/2/6 80/2/6
f 73/3/6 74/3/6 80/3/6
f 72/3/6 73/3/6 80/3/6
f 80/3/6 74/3/6 81/3/6
f 81/3/6 74/3/6 82/3/6
f 74/1/6 75/1/6 83/1/6
f 82/3/6 74/3/6 83/3/6
f 75/3/6 58/3/6 84/3/6
f 83/1/6 75/1/6 84/1/6
f 84/3/6 58/3/6 85/3/6
f 76/2/6 77/2/6 86/2/6
f 53/3/6 76/3/6 86/3/6
f 77/3/6 78/3/6 87/3/6
f 86/2/6 77/2/6 87/2/6
f 78/1/6 79/1/6 88/1/6
f 87/3/6 78/3/6 88/3/6
f 79/3/6 80/3/6 89/3/6
f 88/1/6 79/1/6 89/1/6
f 80/3/6 81/3/6 89/3/6
f 89/3/6 81/3/6 90/3/6
f 81/1/6 82/1/6 91/1/6
f 90/3/6 81/3/6 91/3/6
f 82/3/6 83/3/6 92/3/6
f 91/1/6 82/1/6 92/1/6
f 83/3/6 84/3/6 92/3/6
f 84/2/6 85/2/6 93/2/6
f 92/3/6 84/3/6 93/3/6
f 93/2/6 85/2/6 94/2/6
f 86/1/6 87/1/6 95/1/6
f 53/3/6 86/3/6 95/3/6
f 89/3/6 90/3/6 96/3/6
f 95/1/6 87/1/6 96/1/6
f 87/3/6 88/3/6 96/3/6
f 88/3/6 89/3/6 96/3/6
f 96/3/6 90/3/6 97/3/6
f 97/3/6 90/3/6 98/3/6
f 90/2/6 91/2/6 99/2/6
f 98/3/6 90/3/6 99/3/6
f 93/3/6 94/3/6 100/3/6
f 99/2/6 91/2/6 100/2/6
f 91/3/6 92/3/6 100/3/6
f 92/3/6 93/3/6 100/3/6
f 100/3/6 94/3/6 101/3/6
f 101/3/6 94/3/6 102/3/6
f 102/3/6 94/3/6 103/3/6
f 96/3/6 97/3/6 104/3/6
f 95/3/6 96/3/6 104/3/6
f 97/2/6 98/2/6 105/2/6
f 104/3/6 97/3/6 105/3/6
f 98/3/6 99/3/6 106/3/6
f 105/2/6 98/2/6 106/2/6
f 99/1/6 100/1/6 107/1/6
f 106/3/6 99/3/6 107/3/6
f 100/3/6 101/3/6 108/3/6
f 107/1/6 100/1/6 108/1/6
f 108/3/6 101/3/6 109/3/6
f 101/2/6 102/2/6 110/2/6
f 109/3/6 101/3/6 110/3/6
f 102/1/6 103/1/6 111/1/6
f 110/2/6 102/2/6 111/2/6
f 111/1/6 103/1/6 112/1/6
f 95/3/6 104/3/6 113/3/6
f 53/3/6 95/3/6 113/3/6
f 113/3/6 104/3/6 114/3/6
f 104/2/6 105/2/6 115/2/6
f 114/3/6 104/3/6 115/3/6
f 105/3/6 106/3/6 116/3/6
f 115/2/6 105/2/6 116/2/6
f 106/3/6 107/3/6 116/3/6
f 108/3/6 109/3/6 116/3/6
f 107/3/6 108/3/6 116/3/6
f 116/3/6 109/3/6 117/3/6
f 117/3/6 109/3/6 118/3/6
f 118/3/6 109/3/6 119/3/6
f 109/1/6 110/1/6 120/1/6
f 119/3/6 109/3/6 120/3/6
f 111/3/6 112/3/6 121/3/6
f 120/1/6 110/1/6 121/1/6
f 110/3/6 111/3/6 121/3/6
f 113/1/6 114/1/6 122/1/6
f 114/3/6 115/3/6 123/3/6
f 122/1/6 114/1/6 123/1/6
f 115/3/6 116/3/6 123/3/6
f 116/1/6 117/1/6 124/1/6
f 123/3/6 116/3/6 124/3/6
f 117/2/6 118/2/6 125/2/6
f 124/1/6 117/1/6 125/1/6
f 118/3/6 119/3/6 126/3/6
f 125/2/6 118/2/6 126/2/6
f 119/2/6 120/2/6 127/2/6
f 126/3/6 119/3/6 127/3/6
f 120/3/6 121/3/6 128/3/6
f 127/2/6 120/2/6 128/2/6
f 123/2/6 124/2/6 129/2/6
f 125/3/6 126/3/6 130/3/6
f 129/2/6 124/2/6 130/2/6
f 124/3/6 125/3/6 130/3/6
f 126/3/6 127/3/6 130/3/6
f 130/3/6 127/3/6 131/3/6
f 127/1/6 128/1/6 132/1/6
f 131/3/6 127/3/6 132/3/6
f 128/3/6 121/3/6 133/3/6
f 132/1/6 128/1/6 133/1/6
f 121/3/6 112/3/6 134/3/6
f 133/3/6 121/3/6 134/3/6
f 134/3/6 112/3/6 135/3/6
f 122/3/6 123/3/6 136/3/6
f 123/2/6 129/2/6 137/2/6
f 136/3/6 123/3/6 137/3/6
f 130/3/6 131/3/6 138/3/6
f 137/2/6 129/2/6 138/2/6
f 129/3/6 130/3/6 138/3/6
f 131/2/6 132/2/6 139/2/6
f 138/3/6 131/3/6 139/3/6
f 132/3/6 133/3/6 140/3/6
f 139/2/6 132/2/6 140/2/6
f 133/3/6 134/3/6 140/3/6
f 134/1/6 135/1/6 141/1/6
f 140/3/6 134/3/6 141/3/6
f 135/3/6 112/3/6 142/3/6
f 141/1/6 135/1/6 142/1/6
f 142/3/6 112/3/6 143/3/6
