# MagicaVoxel @ Ephtracy

# group
o 

# material
mtllib stair_turn.mtl
usemtl palette

# normals
vn -1 0 0
vn 1 0 0
vn 0 0 1
vn 0 0 -1
vn 0 -1 0
vn 0 1 0

# texcoords
vt 0.0175781 0.5
vt 0.919922 0.5
vt 0.923828 0.5
vt 0.982422 0.5

# verts
v -0.4 0 0.4
v -0.4 0 -0.6
v -0.4 0.1 0.4
v -0.4 0.1 0.3
v -0.4 0.2 0.4
v -0.4 0.2 0.3
v -0.4 0.2 0.2
v -0.4 0.2 0
v -0.4 0.2 -0.1
v -0.4 0.2 -0.2
v -0.4 0.2 -0.6
v -0.4 0.3 0.2
v -0.4 0.3 0.1
v -0.4 0.3 0
v -0.4 0.3 -0.1
v -0.4 0.3 -0.2
v -0.4 0.3 -0.3
v -0.4 0.3 -0.4
v -0.4 0.4 0.2
v -0.4 0.4 0.1
v -0.4 0.4 0
v -0.4 0.4 -0.2
v -0.4 0.4 -0.3
v -0.4 0.4 -0.4
v -0.4 0.4 -0.5
v -0.4 0.4 -0.6
v -0.4 0.5 0
v -0.4 0.5 -0.1
v -0.4 0.5 -0.4
v -0.4 0.5 -0.5
v -0.4 0.6 0
v -0.4 0.6 -0.1
v -0.4 0.6 -0.2
v -0.4 0.7 -0.2
v -0.4 0.7 -0.3
v -0.4 0.7 -0.4
v -0.4 0.8 -0.2
v -0.4 0.8 -0.3
v -0.4 0.8 -0.4
v -0.4 0.9 -0.4
v -0.4 0.9 -0.5
v -0.4 1 -0.4
v -0.4 1 -0.5
v -0.4 1 -0.6
v -0.2 0.8 -0.4
v -0.2 0.8 -0.5
v -0.2 0.8 -0.6
v -0.2 0.9 -0.4
v -0.2 0.9 -0.6
v -0.2 1 -0.4
v -0.2 1 -0.6
v 0 0.6 -0.2
v 0 0.6 -0.3
v 0 0.6 -0.4
v 0 0.6 -0.5
v 0 0.6 -0.6
v 0 0.7 -0.2
v 0 0.7 -0.6
v 0 0.8 -0.2
v 0 0.8 -0.6
v 0.2 0.4 0
v 0.2 0.4 -0.1
v 0.2 0.4 -0.2
v 0.2 0.4 -0.4
v 0.2 0.4 -0.5
v 0.2 0.4 -0.6
v 0.2 0.5 0
v 0.2 0.5 -0.6
v 0.2 0.6 0
v 0.2 0.6 -0.6
v 0.4 0.2 0.2
v 0.4 0.2 -0.1
v 0.4 0.2 -0.2
v 0.4 0.2 -0.3
v 0.4 0.2 -0.4
v 0.4 0.2 -0.6
v 0.4 0.3 0.2
v 0.4 0.3 -0.6
v 0.4 0.4 0.2
v 0.4 0.4 -0.6
v 0.6 0 0.4
v 0.6 0 -0.6
v 0.6 0.1 0.4
v 0.6 0.1 -0.6
v 0.6 0.2 0.4
v 0.6 0.2 -0.6
v -0.4 0 0.4
v -0.4 0.1 0.4
v -0.4 0.2 0.4
v 0.6 0 0.4
v 0.6 0.1 0.4
v 0.6 0.2 0.4
v -0.4 0.2 0.2
v -0.4 0.3 0.2
v -0.4 0.4 0.2
v -0.3 0.2 0.2
v -0.1 0.2 0.2
v 0 0.2 0.2
v 0.1 0.2 0.2
v 0.2 0.2 0.2
v 0.3 0.2 0.2
v 0.4 0.2 0.2
v 0.4 0.3 0.2
v 0.4 0.4 0.2
v -0.4 0.4 0
v -0.4 0.5 0
v -0.4 0.6 0
v -0.3 0.4 0
v -0.2 0.4 0
v 0 0.4 0
v 0.2 0.4 0
v 0.2 0.5 0
v 0.2 0.6 0
v -0.4 0.6 -0.2
v -0.4 0.7 -0.2
v -0.4 0.8 -0.2
v -0.2 0.6 -0.2
v -0.1 0.6 -0.2
v 0 0.6 -0.2
v 0 0.7 -0.2
v 0 0.8 -0.2
v -0.4 0.8 -0.4
v -0.4 0.9 -0.4
v -0.4 1 -0.4
v -0.3 0.8 -0.4
v -0.2 0.8 -0.4
v -0.2 0.9 -0.4
v -0.2 1 -0.4
v -0.4 0 -0.6
v -0.4 0.2 -0.6
v -0.4 0.4 -0.6
v -0.4 1 -0.6
v -0.3 0.4 -0.6
v -0.3 0.5 -0.6
v -0.3 0.9 -0.6
v -0.3 1 -0.6
v -0.2 0.3 -0.6
v -0.2 0.4 -0.6
v -0.2 0.5 -0.6
v -0.2 0.8 -0.6
v -0.2 0.9 -0.6
v -0.2 1 -0.6
v -0.1 0.3 -0.6
v -0.1 0.4 -0.6
v -0.1 0.7 -0.6
v -0.1 0.8 -0.6
v 0 0.2 -0.6
v 0 0.3 -0.6
v 0 0.4 -0.6
v 0 0.5 -0.6
v 0 0.6 -0.6
v 0 0.7 -0.6
v 0 0.8 -0.6
v 0.1 0.2 -0.6
v 0.1 0.3 -0.6
v 0.1 0.5 -0.6
v 0.1 0.6 -0.6
v 0.2 0.2 -0.6
v 0.2 0.3 -0.6
v 0.2 0.4 -0.6
v 0.2 0.5 -0.6
v 0.2 0.6 -0.6
v 0.3 0.3 -0.6
v 0.3 0.4 -0.6
v 0.4 0.2 -0.6
v 0.4 0.3 -0.6
v 0.4 0.4 -0.6
v 0.5 0.1 -0.6
v 0.5 0.2 -0.6
v 0.6 0 -0.6
v 0.6 0.1 -0.6
v 0.6 0.2 -0.6
v -0.4 0 0.4
v 0.6 0 0.4
v -0.4 0 -0.6
v 0.6 0 -0.6
v -0.4 0.2 0.4
v 0.6 0.2 0.4
v -0.4 0.2 0.3
v -0.3 0.2 0.3
v -0.1 0.2 0.3
v 0 0.2 0.3
v 0.1 0.2 0.3
v 0.2 0.2 0.3
v 0.3 0.2 0.3
v 0.5 0.2 0.3
v -0.4 0.2 0.2
v -0.3 0.2 0.2
v -0.1 0.2 0.2
v 0 0.2 0.2
v 0.1 0.2 0.2
v 0.2 0.2 0.2
v 0.3 0.2 0.2
v 0.4 0.2 0.2
v 0.5 0.2 0.2
v 0.4 0.2 -0.1
v 0.5 0.2 -0.1
v 0.4 0.2 -0.2
v 0.5 0.2 -0.2
v 0.4 0.2 -0.3
v 0.5 0.2 -0.3
v 0.4 0.2 -0.4
v 0.5 0.2 -0.4
v 0.4 0.2 -0.6
v 0.5 0.2 -0.6
v 0.6 0.2 -0.6
v -0.4 0.4 0.2
v 0.4 0.4 0.2
v -0.4 0.4 0.1
v -0.3 0.4 0.1
v -0.2 0.4 0.1
v 0 0.4 0.1
v 0.3 0.4 0.1
v -0.4 0.4 0
v -0.3 0.4 0
v -0.2 0.4 0
v 0 0.4 0
v 0.2 0.4 0
v 0.3 0.4 0
v 0.2 0.4 -0.1
v 0.3 0.4 -0.1
v 0.2 0.4 -0.2
v 0.3 0.4 -0.2
v 0.2 0.4 -0.4
v 0.3 0.4 -0.4
v 0.2 0.4 -0.5
v 0.3 0.4 -0.5
v 0.2 0.4 -0.6
v 0.3 0.4 -0.6
v 0.4 0.4 -0.6
v -0.4 0.6 0
v 0.2 0.6 0
v -0.4 0.6 -0.1
v -0.2 0.6 -0.1
v -0.1 0.6 -0.1
v 0 0.6 -0.1
v 0.1 0.6 -0.1
v -0.4 0.6 -0.2
v -0.2 0.6 -0.2
v -0.1 0.6 -0.2
v 0 0.6 -0.2
v 0 0.6 -0.3
v 0.1 0.6 -0.3
v 0 0.6 -0.4
v 0.1 0.6 -0.4
v 0 0.6 -0.5
v 0.1 0.6 -0.5
v 0 0.6 -0.6
v 0.1 0.6 -0.6
v 0.2 0.6 -0.6
v -0.4 0.8 -0.2
v 0 0.8 -0.2
v -0.4 0.8 -0.3
v -0.3 0.8 -0.3
v -0.1 0.8 -0.3
v -0.4 0.8 -0.4
v -0.3 0.8 -0.4
v -0.2 0.8 -0.4
v -0.1 0.8 -0.4
v -0.2 0.8 -0.5
v -0.1 0.8 -0.5
v -0.2 0.8 -0.6
v -0.1 0.8 -0.6
v 0 0.8 -0.6
v -0.4 1 -0.4
v -0.2 1 -0.4
v -0.4 1 -0.5
v -0.3 1 -0.5
v -0.4 1 -0.6
v -0.3 1 -0.6
v -0.2 1 -0.6

# faces
f 3/3/1 2/3/1 1/3/1
f 4/3/1 2/3/1 3/3/1
f 5/4/1 4/4/1 3/4/1
f 6/3/1 2/3/1 4/3/1
f 6/4/1 4/4/1 5/4/1
f 7/3/1 2/3/1 6/3/1
f 8/3/1 2/3/1 7/3/1
f 9/3/1 2/3/1 8/3/1
f 10/3/1 2/3/1 9/3/1
f 11/3/1 2/3/1 10/3/1
f 12/3/1 8/3/1 7/3/1
f 13/3/1 8/3/1 12/3/1
f 14/4/1 9/4/1 8/4/1
f 14/3/1 8/3/1 13/3/1
f 15/3/1 10/3/1 9/3/1
f 15/4/1 9/4/1 14/4/1
f 16/1/1 11/1/1 10/1/1
f 16/3/1 10/3/1 15/3/1
f 17/1/1 11/1/1 16/1/1
f 18/1/1 11/1/1 17/1/1
f 19/4/1 13/4/1 12/4/1
f 20/3/1 15/3/1 14/3/1
f 20/4/1 13/4/1 19/4/1
f 20/3/1 14/3/1 13/3/1
f 20/3/1 16/3/1 15/3/1
f 21/3/1 16/3/1 20/3/1
f 22/4/1 17/4/1 16/4/1
f 22/3/1 16/3/1 21/3/1
f 23/3/1 18/3/1 17/3/1
f 23/4/1 17/4/1 22/4/1
f 24/1/1 11/1/1 18/1/1
f 24/3/1 18/3/1 23/3/1
f 25/1/1 11/1/1 24/1/1
f 26/1/1 11/1/1 25/1/1
f 27/3/1 22/3/1 21/3/1
f 27/3/1 23/3/1 22/3/1
f 27/3/1 24/3/1 23/3/1
f 28/3/1 24/3/1 27/3/1
f 29/4/1 25/4/1 24/4/1
f 29/3/1 24/3/1 28/3/1
f 30/3/1 26/3/1 25/3/1
f 30/4/1 25/4/1 29/4/1
f 31/4/1 28/4/1 27/4/1
f 32/3/1 29/3/1 28/3/1
f 32/4/1 28/4/1 31/4/1
f 32/3/1 30/3/1 29/3/1
f 33/3/1 30/3/1 32/3/1
f 34/3/1 30/3/1 33/3/1
f 35/3/1 30/3/1 34/3/1
f 36/3/1 30/3/1 35/3/1
f 37/4/1 35/4/1 34/4/1
f 38/2/1 36/2/1 35/2/1
f 38/4/1 35/4/1 37/4/1
f 39/3/1 30/3/1 36/3/1
f 39/2/1 36/2/1 38/2/1
f 40/3/1 30/3/1 39/3/1
f 41/3/1 26/3/1 30/3/1
f 41/3/1 30/3/1 40/3/1
f 42/4/1 41/4/1 40/4/1
f 43/3/1 26/3/1 41/3/1
f 43/4/1 41/4/1 42/4/1
f 44/3/1 26/3/1 43/3/1
f 45/3/2 46/3/2 48/3/2
f 46/3/2 47/3/2 48/3/2
f 48/3/2 47/3/2 49/3/2
f 48/4/2 49/4/2 50/4/2
f 50/4/2 49/4/2 51/4/2
f 52/3/2 53/3/2 57/3/2
f 55/3/2 56/3/2 57/3/2
f 54/3/2 55/3/2 57/3/2
f 53/3/2 54/3/2 57/3/2
f 57/3/2 56/3/2 58/3/2
f 57/4/2 58/4/2 59/4/2
f 59/4/2 58/4/2 60/4/2
f 61/3/2 62/3/2 67/3/2
f 65/3/2 66/3/2 67/3/2
f 64/3/2 65/3/2 67/3/2
f 63/3/2 64/3/2 67/3/2
f 62/3/2 63/3/2 67/3/2
f 67/3/2 66/3/2 68/3/2
f 67/4/2 68/4/2 69/4/2
f 69/4/2 68/4/2 70/4/2
f 71/3/2 72/3/2 77/3/2
f 75/3/2 76/3/2 77/3/2
f 74/3/2 75/3/2 77/3/2
f 73/3/2 74/3/2 77/3/2
f 72/3/2 73/3/2 77/3/2
f 77/3/2 76/3/2 78/3/2
f 77/4/2 78/4/2 79/4/2
f 79/4/2 78/4/2 80/4/2
f 81/3/2 82/3/2 83/3/2
f 83/3/2 82/3/2 84/3/2
f 83/4/2 84/4/2 85/4/2
f 85/4/2 84/4/2 86/4/2
f 90/3/3 88/3/3 87/3/3
f 91/4/3 89/4/3 88/4/3
f 91/3/3 88/3/3 90/3/3
f 92/4/3 89/4/3 91/4/3
f 96/3/3 94/3/3 93/3/3
f 97/3/3 94/3/3 96/3/3
f 98/3/3 94/3/3 97/3/3
f 99/3/3 94/3/3 98/3/3
f 100/3/3 94/3/3 99/3/3
f 101/3/3 94/3/3 100/3/3
f 102/3/3 94/3/3 101/3/3
f 103/4/3 95/4/3 94/4/3
f 103/3/3 94/3/3 102/3/3
f 104/4/3 95/4/3 103/4/3
f 108/3/3 106/3/3 105/3/3
f 109/3/3 106/3/3 108/3/3
f 110/3/3 106/3/3 109/3/3
f 111/3/3 106/3/3 110/3/3
f 112/4/3 107/4/3 106/4/3
f 112/3/3 106/3/3 111/3/3
f 113/4/3 107/4/3 112/4/3
f 117/3/3 115/3/3 114/3/3
f 118/3/3 115/3/3 117/3/3
f 119/3/3 115/3/3 118/3/3
f 120/4/3 116/4/3 115/4/3
f 120/3/3 115/3/3 119/3/3
f 121/4/3 116/4/3 120/4/3
f 125/3/3 123/3/3 122/3/3
f 126/3/3 123/3/3 125/3/3
f 127/4/3 124/4/3 123/4/3
f 127/3/3 123/3/3 126/3/3
f 128/4/3 124/4/3 127/4/3
f 130/1/4 131/1/4 133/1/4
f 131/3/4 132/3/4 133/3/4
f 133/3/4 132/3/4 134/3/4
f 134/3/4 132/3/4 135/3/4
f 135/3/4 132/3/4 136/3/4
f 130/1/4 133/1/4 137/1/4
f 133/4/4 134/4/4 138/4/4
f 137/1/4 133/1/4 138/1/4
f 134/3/4 135/3/4 139/3/4
f 138/4/4 134/4/4 139/4/4
f 139/3/4 135/3/4 140/3/4
f 135/4/4 136/4/4 141/4/4
f 140/3/4 135/3/4 141/3/4
f 141/4/4 136/4/4 142/4/4
f 130/1/4 137/1/4 143/1/4
f 137/3/4 138/3/4 143/3/4
f 138/3/4 139/3/4 143/3/4
f 139/3/4 140/3/4 143/3/4
f 143/3/4 140/3/4 144/3/4
f 144/3/4 140/3/4 145/3/4
f 145/3/4 140/3/4 146/3/4
f 129/3/4 130/3/4 147/3/4
f 130/1/4 143/1/4 147/1/4
f 143/4/4 144/4/4 148/4/4
f 147/1/4 143/1/4 148/1/4
f 144/3/4 145/3/4 149/3/4
f 148/4/4 144/4/4 149/4/4
f 149/3/4 145/3/4 150/3/4
f 150/3/4 145/3/4 151/3/4
f 145/4/4 146/4/4 152/4/4
f 151/3/4 145/3/4 152/3/4
f 152/4/4 146/4/4 153/4/4
f 129/3/4 147/3/4 154/3/4
f 147/3/4 148/3/4 154/3/4
f 149/3/4 150/3/4 154/3/4
f 148/3/4 149/3/4 154/3/4
f 154/3/4 150/3/4 155/3/4
f 150/2/4 151/2/4 156/2/4
f 155/3/4 150/3/4 156/3/4
f 156/2/4 151/2/4 157/2/4
f 154/4/4 155/4/4 158/4/4
f 129/3/4 154/3/4 158/3/4
f 155/3/4 156/3/4 159/3/4
f 158/4/4 155/4/4 159/4/4
f 159/3/4 156/3/4 160/3/4
f 156/4/4 157/4/4 161/4/4
f 160/3/4 156/3/4 161/3/4
f 161/4/4 157/4/4 162/4/4
f 159/3/4 160/3/4 163/3/4
f 158/3/4 159/3/4 163/3/4
f 163/3/4 160/3/4 164/3/4
f 129/3/4 158/3/4 165/3/4
f 158/3/4 163/3/4 165/3/4
f 163/4/4 164/4/4 166/4/4
f 165/3/4 163/3/4 166/3/4
f 166/4/4 164/4/4 167/4/4
f 129/3/4 165/3/4 168/3/4
f 168/3/4 165/3/4 169/3/4
f 129/3/4 168/3/4 170/3/4
f 168/4/4 169/4/4 171/4/4
f 170/3/4 168/3/4 171/3/4
f 171/4/4 169/4/4 172/4/4
f 175/3/5 174/3/5 173/3/5
f 176/3/5 174/3/5 175/3/5
f 177/4/6 178/4/6 179/4/6
f 179/4/6 178/4/6 180/4/6
f 180/4/6 178/4/6 181/4/6
f 181/4/6 178/4/6 182/4/6
f 182/4/6 178/4/6 183/4/6
f 183/4/6 178/4/6 184/4/6
f 184/4/6 178/4/6 185/4/6
f 185/4/6 178/4/6 186/4/6
f 179/3/6 180/3/6 187/3/6
f 180/2/6 181/2/6 188/2/6
f 187/3/6 180/3/6 188/3/6
f 181/3/6 182/3/6 189/3/6
f 188/2/6 181/2/6 189/2/6
f 182/2/6 183/2/6 190/2/6
f 189/3/6 182/3/6 190/3/6
f 183/3/6 184/3/6 191/3/6
f 190/2/6 183/2/6 191/2/6
f 184/4/6 185/4/6 192/4/6
f 191/3/6 184/3/6 192/3/6
f 185/3/6 186/3/6 193/3/6
f 192/4/6 185/4/6 193/4/6
f 193/3/6 186/3/6 194/3/6
f 186/4/6 178/4/6 195/4/6
f 194/3/6 186/3/6 195/3/6
f 194/2/6 195/2/6 196/2/6
f 195/4/6 178/4/6 197/4/6
f 196/2/6 195/2/6 197/2/6
f 196/3/6 197/3/6 198/3/6
f 197/4/6 178/4/6 199/4/6
f 198/3/6 197/3/6 199/3/6
f 198/4/6 199/4/6 200/4/6
f 199/4/6 178/4/6 201/4/6
f 200/4/6 199/4/6 201/4/6
f 200/2/6 201/2/6 202/2/6
f 201/4/6 178/4/6 203/4/6
f 202/2/6 201/2/6 203/2/6
f 202/3/6 203/3/6 204/3/6
f 203/4/6 178/4/6 205/4/6
f 204/3/6 203/3/6 205/3/6
f 205/4/6 178/4/6 206/4/6
f 207/4/6 208/4/6 209/4/6
f 209/4/6 208/4/6 210/4/6
f 210/4/6 208/4/6 211/4/6
f 211/4/6 208/4/6 212/4/6
f 212/4/6 208/4/6 213/4/6
f 209/3/6 210/3/6 214/3/6
f 210/4/6 211/4/6 215/4/6
f 214/3/6 210/3/6 215/3/6
f 211/3/6 212/3/6 216/3/6
f 215/4/6 211/4/6 216/4/6
f 212/2/6 213/2/6 217/2/6
f 216/3/6 212/3/6 217/3/6
f 217/2/6 213/2/6 218/2/6
f 213/4/6 208/4/6 219/4/6
f 218/2/6 213/2/6 219/2/6
f 218/3/6 219/3/6 220/3/6
f 219/4/6 208/4/6 221/4/6
f 220/3/6 219/3/6 221/3/6
f 220/4/6 221/4/6 222/4/6
f 221/4/6 208/4/6 223/4/6
f 222/4/6 221/4/6 223/4/6
f 222/3/6 223/3/6 224/3/6
f 223/4/6 208/4/6 225/4/6
f 224/3/6 223/3/6 225/3/6
f 224/2/6 225/2/6 226/2/6
f 225/4/6 208/4/6 227/4/6
f 226/2/6 225/2/6 227/2/6
f 226/3/6 227/3/6 228/3/6
f 227/4/6 208/4/6 229/4/6
f 228/3/6 227/3/6 229/3/6
f 229/4/6 208/4/6 230/4/6
f 231/4/6 232/4/6 233/4/6
f 233/4/6 232/4/6 234/4/6
f 234/4/6 232/4/6 235/4/6
f 235/4/6 232/4/6 236/4/6
f 236/4/6 232/4/6 237/4/6
f 233/3/6 234/3/6 238/3/6
f 234/4/6 235/4/6 239/4/6
f 238/3/6 234/3/6 239/3/6
f 235/2/6 236/2/6 240/2/6
f 239/4/6 235/4/6 240/4/6
f 236/3/6 237/3/6 241/3/6
f 240/2/6 236/2/6 241/2/6
f 241/3/6 237/3/6 242/3/6
f 237/4/6 232/4/6 243/4/6
f 242/3/6 237/3/6 243/3/6
f 242/4/6 243/4/6 244/4/6
f 243/4/6 232/4/6 245/4/6
f 244/4/6 243/4/6 245/4/6
f 244/3/6 245/3/6 246/3/6
f 245/4/6 232/4/6 247/4/6
f 246/3/6 245/3/6 247/3/6
f 246/2/6 247/2/6 248/2/6
f 247/4/6 232/4/6 249/4/6
f 248/2/6 247/2/6 249/2/6
f 249/4/6 232/4/6 250/4/6
f 251/4/6 252/4/6 253/4/6
f 253/4/6 252/4/6 254/4/6
f 254/4/6 252/4/6 255/4/6
f 253/2/6 254/2/6 256/2/6
f 254/3/6 255/3/6 257/3/6
f 256/2/6 254/2/6 257/2/6
f 257/3/6 255/3/6 258/3/6
f 255/4/6 252/4/6 259/4/6
f 258/3/6 255/3/6 259/3/6
f 258/4/6 259/4/6 260/4/6
f 259/4/6 252/4/6 261/4/6
f 260/4/6 259/4/6 261/4/6
f 260/3/6 261/3/6 262/3/6
f 261/4/6 252/4/6 263/4/6
f 262/3/6 261/3/6 263/3/6
f 263/4/6 252/4/6 264/4/6
f 265/4/6 266/4/6 267/4/6
f 267/4/6 266/4/6 268/4/6
f 267/3/6 268/3/6 269/3/6
f 268/4/6 266/4/6 270/4/6
f 269/3/6 268/3/6 270/3/6
f 270/4/6 266/4/6 271/4/6
