# MagicaVoxel @ Ephtracy

# group
o 

# material
mtllib 3x3x3.mtl
usemtl palette

# normals
vn -1 0 0
vn 1 0 0
vn 0 0 1
vn 0 0 -1
vn 0 -1 0
vn 0 1 0

# texcoords
vt 0.810547 0.5
vt 0.982422 0.5

# verts
v -0.4 0 0.4
v -0.4 0 -0.1
v -0.4 0 -0.2
v -0.4 0 -0.6
v -0.4 0.3 0.4
v -0.4 0.3 -0.1
v -0.4 0.3 -0.2
v -0.4 0.3 -0.6
v -0.4 0.4 0.4
v -0.4 0.4 0.2
v -0.4 0.4 0.1
v -0.4 0.4 -0.3
v -0.4 0.4 -0.4
v -0.4 0.4 -0.6
v -0.4 0.7 0.4
v -0.4 0.7 0.2
v -0.4 0.7 0.1
v -0.4 0.7 -0.3
v -0.4 0.7 -0.4
v -0.4 0.7 -0.6
v -0.4 0.8 0.4
v -0.4 0.8 -0.1
v -0.4 0.8 -0.2
v -0.4 0.8 -0.6
v -0.4 1 0.4
v -0.4 1 -0.1
v -0.4 1 -0.2
v -0.4 1 -0.6
v 0.6 0 0.4
v 0.6 0 0
v 0.6 0 -0.1
v 0.6 0 -0.6
v 0.6 0.3 0.4
v 0.6 0.3 0
v 0.6 0.3 -0.1
v 0.6 0.3 -0.6
v 0.6 0.4 0.4
v 0.6 0.4 0.2
v 0.6 0.4 0.1
v 0.6 0.4 -0.3
v 0.6 0.4 -0.4
v 0.6 0.4 -0.6
v 0.6 0.7 0.4
v 0.6 0.7 0.2
v 0.6 0.7 0.1
v 0.6 0.7 -0.3
v 0.6 0.7 -0.4
v 0.6 0.7 -0.6
v 0.6 0.8 0.4
v 0.6 0.8 0
v 0.6 0.8 -0.1
v 0.6 0.8 -0.6
v 0.6 1 0.4
v 0.6 1 0
v 0.6 1 -0.1
v 0.6 1 -0.6
v -0.4 0 0.4
v -0.4 0.3 0.4
v -0.4 0.4 0.4
v -0.4 0.7 0.4
v -0.4 0.8 0.4
v -0.4 1 0.4
v -0.2 0.4 0.4
v -0.2 0.7 0.4
v -0.1 0.4 0.4
v -0.1 0.7 0.4
v 0 0 0.4
v 0 0.3 0.4
v 0 0.8 0.4
v 0 1 0.4
v 0.1 0 0.4
v 0.1 0.3 0.4
v 0.1 0.8 0.4
v 0.1 1 0.4
v 0.3 0.4 0.4
v 0.3 0.7 0.4
v 0.4 0.4 0.4
v 0.4 0.7 0.4
v 0.6 0 0.4
v 0.6 0.3 0.4
v 0.6 0.4 0.4
v 0.6 0.7 0.4
v 0.6 0.8 0.4
v 0.6 1 0.4
v -0.4 0 -0.6
v -0.4 0.3 -0.6
v -0.4 0.4 -0.6
v -0.4 0.7 -0.6
v -0.4 0.8 -0.6
v -0.4 1 -0.6
v -0.2 0.4 -0.6
v -0.2 0.7 -0.6
v -0.1 0.4 -0.6
v -0.1 0.7 -0.6
v 0.1 0 -0.6
v 0.1 0.3 -0.6
v 0.1 0.8 -0.6
v 0.1 1 -0.6
v 0.2 0 -0.6
v 0.2 0.3 -0.6
v 0.2 0.8 -0.6
v 0.2 1 -0.6
v 0.3 0.4 -0.6
v 0.3 0.7 -0.6
v 0.4 0.4 -0.6
v 0.4 0.7 -0.6
v 0.6 0 -0.6
v 0.6 0.3 -0.6
v 0.6 0.4 -0.6
v 0.6 0.7 -0.6
v 0.6 0.8 -0.6
v 0.6 1 -0.6
v -0.4 0 0.4
v 0 0 0.4
v 0.1 0 0.4
v 0.6 0 0.4
v 0 0 0.3
v 0.1 0 0.3
v 0.5 0 0
v 0.6 0 0
v -0.4 0 -0.1
v -0.3 0 -0.1
v 0.5 0 -0.1
v 0.6 0 -0.1
v -0.4 0 -0.2
v -0.3 0 -0.2
v 0.1 0 -0.5
v 0.2 0 -0.5
v -0.4 0 -0.6
v 0.1 0 -0.6
v 0.2 0 -0.6
v 0.6 0 -0.6
v -0.4 1 0.4
v 0 1 0.4
v 0.1 1 0.4
v 0.6 1 0.4
v 0 1 0.3
v 0.1 1 0.3
v 0.5 1 0
v 0.6 1 0
v -0.4 1 -0.1
v -0.3 1 -0.1
v 0.5 1 -0.1
v 0.6 1 -0.1
v -0.4 1 -0.2
v -0.3 1 -0.2
v 0.1 1 -0.5
v 0.2 1 -0.5
v -0.4 1 -0.6
v 0.1 1 -0.6
v 0.2 1 -0.6
v 0.6 1 -0.6

# faces
f 5/1/1 2/1/1 1/1/1
f 6/2/1 3/2/1 2/2/1
f 6/1/1 2/1/1 5/1/1
f 7/1/1 4/1/1 3/1/1
f 7/2/1 3/2/1 6/2/1
f 8/1/1 4/1/1 7/1/1
f 9/2/1 6/2/1 5/2/1
f 9/2/1 7/2/1 6/2/1
f 9/2/1 8/2/1 7/2/1
f 10/2/1 8/2/1 9/2/1
f 11/2/1 8/2/1 10/2/1
f 12/2/1 8/2/1 11/2/1
f 13/2/1 8/2/1 12/2/1
f 14/2/1 8/2/1 13/2/1
f 15/1/1 10/1/1 9/1/1
f 16/2/1 11/2/1 10/2/1
f 16/1/1 10/1/1 15/1/1
f 17/1/1 12/1/1 11/1/1
f 17/2/1 11/2/1 16/2/1
f 18/2/1 13/2/1 12/2/1
f 18/1/1 12/1/1 17/1/1
f 19/1/1 14/1/1 13/1/1
f 19/2/1 13/2/1 18/2/1
f 20/1/1 14/1/1 19/1/1
f 21/2/1 16/2/1 15/2/1
f 21/2/1 17/2/1 16/2/1
f 21/2/1 20/2/1 19/2/1
f 21/2/1 19/2/1 18/2/1
f 21/2/1 18/2/1 17/2/1
f 22/2/1 20/2/1 21/2/1
f 23/2/1 20/2/1 22/2/1
f 24/2/1 20/2/1 23/2/1
f 25/1/1 22/1/1 21/1/1
f 26/2/1 23/2/1 22/2/1
f 26/1/1 22/1/1 25/1/1
f 27/1/1 24/1/1 23/1/1
f 27/2/1 23/2/1 26/2/1
f 28/1/1 24/1/1 27/1/1
f 29/1/2 30/1/2 33/1/2
f 30/2/2 31/2/2 34/2/2
f 33/1/2 30/1/2 34/1/2
f 31/1/2 32/1/2 35/1/2
f 34/2/2 31/2/2 35/2/2
f 35/1/2 32/1/2 36/1/2
f 33/2/2 34/2/2 37/2/2
f 34/2/2 35/2/2 37/2/2
f 35/2/2 36/2/2 37/2/2
f 37/2/2 36/2/2 38/2/2
f 38/2/2 36/2/2 39/2/2
f 39/2/2 36/2/2 40/2/2
f 40/2/2 36/2/2 41/2/2
f 41/2/2 36/2/2 42/2/2
f 37/1/2 38/1/2 43/1/2
f 38/2/2 39/2/2 44/2/2
f 43/1/2 38/1/2 44/1/2
f 39/1/2 40/1/2 45/1/2
f 44/2/2 39/2/2 45/2/2
f 40/2/2 41/2/2 46/2/2
f 45/1/2 40/1/2 46/1/2
f 41/1/2 42/1/2 47/1/2
f 46/2/2 41/2/2 47/2/2
f 47/1/2 42/1/2 48/1/2
f 43/2/2 44/2/2 49/2/2
f 44/2/2 45/2/2 49/2/2
f 47/2/2 48/2/2 49/2/2
f 46/2/2 47/2/2 49/2/2
f 45/2/2 46/2/2 49/2/2
f 49/2/2 48/2/2 50/2/2
f 50/2/2 48/2/2 51/2/2
f 51/2/2 48/2/2 52/2/2
f 49/1/2 50/1/2 53/1/2
f 50/2/2 51/2/2 54/2/2
f 53/1/2 50/1/2 54/1/2
f 51/1/2 52/1/2 55/1/2
f 54/2/2 51/2/2 55/2/2
f 55/1/2 52/1/2 56/1/2
f 63/2/3 59/2/3 58/2/3
f 63/1/3 60/1/3 59/1/3
f 64/2/3 61/2/3 60/2/3
f 64/1/3 60/1/3 63/1/3
f 65/2/3 63/2/3 58/2/3
f 65/2/3 64/2/3 63/2/3
f 66/2/3 61/2/3 64/2/3
f 66/2/3 64/2/3 65/2/3
f 67/1/3 58/1/3 57/1/3
f 68/2/3 65/2/3 58/2/3
f 68/1/3 58/1/3 67/1/3
f 69/2/3 61/2/3 66/2/3
f 69/1/3 62/1/3 61/1/3
f 70/1/3 62/1/3 69/1/3
f 71/2/3 68/2/3 67/2/3
f 72/2/3 65/2/3 68/2/3
f 72/2/3 68/2/3 71/2/3
f 73/2/3 69/2/3 66/2/3
f 73/2/3 70/2/3 69/2/3
f 74/2/3 70/2/3 73/2/3
f 75/1/3 66/1/3 65/1/3
f 75/2/3 65/2/3 72/2/3
f 76/2/3 73/2/3 66/2/3
f 76/1/3 66/1/3 75/1/3
f 77/2/3 75/2/3 72/2/3
f 77/2/3 76/2/3 75/2/3
f 78/2/3 73/2/3 76/2/3
f 78/2/3 76/2/3 77/2/3
f 79/1/3 72/1/3 71/1/3
f 80/2/3 77/2/3 72/2/3
f 80/1/3 72/1/3 79/1/3
f 81/1/3 78/1/3 77/1/3
f 81/2/3 77/2/3 80/2/3
f 82/2/3 73/2/3 78/2/3
f 82/1/3 78/1/3 81/1/3
f 83/1/3 74/1/3 73/1/3
f 83/2/3 73/2/3 82/2/3
f 84/1/3 74/1/3 83/1/3
f 86/2/4 87/2/4 91/2/4
f 87/1/4 88/1/4 91/1/4
f 88/2/4 89/2/4 92/2/4
f 91/1/4 88/1/4 92/1/4
f 86/2/4 91/2/4 93/2/4
f 91/2/4 92/2/4 93/2/4
f 92/2/4 89/2/4 94/2/4
f 93/2/4 92/2/4 94/2/4
f 85/1/4 86/1/4 95/1/4
f 86/2/4 93/2/4 96/2/4
f 95/1/4 86/1/4 96/1/4
f 94/2/4 89/2/4 97/2/4
f 89/1/4 90/1/4 97/1/4
f 97/1/4 90/1/4 98/1/4
f 95/2/4 96/2/4 99/2/4
f 96/2/4 93/2/4 100/2/4
f 99/2/4 96/2/4 100/2/4
f 94/2/4 97/2/4 101/2/4
f 97/2/4 98/2/4 101/2/4
f 101/2/4 98/2/4 102/2/4
f 93/1/4 94/1/4 103/1/4
f 100/2/4 93/2/4 103/2/4
f 94/2/4 101/2/4 104/2/4
f 103/1/4 94/1/4 104/1/4
f 100/2/4 103/2/4 105/2/4
f 103/2/4 104/2/4 105/2/4
f 104/2/4 101/2/4 106/2/4
f 105/2/4 104/2/4 106/2/4
f 99/1/4 100/1/4 107/1/4
f 100/2/4 105/2/4 108/2/4
f 107/1/4 100/1/4 108/1/4
f 105/1/4 106/1/4 109/1/4
f 108/2/4 105/2/4 109/2/4
f 106/2/4 101/2/4 110/2/4
f 109/1/4 106/1/4 110/1/4
f 101/1/4 102/1/4 111/1/4
f 110/2/4 101/2/4 111/2/4
f 111/1/4 102/1/4 112/1/4
f 117/1/5 114/1/5 113/1/5
f 117/2/5 115/2/5 114/2/5
f 118/1/5 116/1/5 115/1/5
f 118/2/5 115/2/5 117/2/5
f 119/1/5 118/1/5 117/1/5
f 119/1/5 116/1/5 118/1/5
f 120/1/5 116/1/5 119/1/5
f 121/1/5 117/1/5 113/1/5
f 121/1/5 119/1/5 117/1/5
f 122/1/5 119/1/5 121/1/5
f 123/2/5 120/2/5 119/2/5
f 123/1/5 119/1/5 122/1/5
f 124/2/5 120/2/5 123/2/5
f 125/2/5 122/2/5 121/2/5
f 126/1/5 123/1/5 122/1/5
f 126/2/5 122/2/5 125/2/5
f 126/1/5 124/1/5 123/1/5
f 127/1/5 126/1/5 125/1/5
f 127/1/5 124/1/5 126/1/5
f 128/1/5 124/1/5 127/1/5
f 129/1/5 127/1/5 125/1/5
f 130/2/5 128/2/5 127/2/5
f 130/1/5 127/1/5 129/1/5
f 131/1/5 124/1/5 128/1/5
f 131/2/5 128/2/5 130/2/5
f 132/1/5 124/1/5 131/1/5
f 133/1/6 134/1/6 137/1/6
f 134/2/6 135/2/6 137/2/6
f 135/1/6 136/1/6 138/1/6
f 137/2/6 135/2/6 138/2/6
f 137/1/6 138/1/6 139/1/6
f 138/1/6 136/1/6 139/1/6
f 139/1/6 136/1/6 140/1/6
f 133/1/6 137/1/6 141/1/6
f 137/1/6 139/1/6 141/1/6
f 141/1/6 139/1/6 142/1/6
f 139/2/6 140/2/6 143/2/6
f 142/1/6 139/1/6 143/1/6
f 143/2/6 140/2/6 144/2/6
f 141/2/6 142/2/6 145/2/6
f 142/1/6 143/1/6 146/1/6
f 145/2/6 142/2/6 146/2/6
f 143/1/6 144/1/6 146/1/6
f 145/1/6 146/1/6 147/1/6
f 146/1/6 144/1/6 147/1/6
f 147/1/6 144/1/6 148/1/6
f 145/1/6 147/1/6 149/1/6
f 147/2/6 148/2/6 150/2/6
f 149/1/6 147/1/6 150/1/6
f 148/1/6 144/1/6 151/1/6
f 150/2/6 148/2/6 151/2/6
f 151/1/6 144/1/6 152/1/6
